<svg xmlns="http://www.w3.org/2000/svg" viewBox="0 0 32 32">
  <defs>
    <linearGradient id="g" x1="0%" y1="0%" x2="100%" y2="100%">
      <stop offset="0%" style="stop-color:#2563eb"/>
      <stop offset="100%" style="stop-color:#10b981"/>
    </linearGradient>
  </defs>
  <rect width="32" height="32" rx="6" fill="url(#g)"/>
  <path d="M21.5 10.5c0-0.9-0.3-1.7-0.9-2.3l-2.9 2.9-2.3-0.6-0.6-2.3 2.9-2.9c-0.6-0.5-1.4-0.8-2.3-0.8-2.6 0-4.8 2.2-4.8 4.8 0 0.6 0.1 1.1 0.3 1.6L6.4 15.5c-0.6 0.6-0.6 1.6 0 2.3l0.6 0.6c0.6 0.6 1.6 0.6 2.3 0l4.5-4.5c0.5 0.2 1 0.3 1.6 0.3 2.6 0 4.8-2.2 4.8-4.8z" fill="none" stroke="white" stroke-width="1.2" stroke-linecap="round" stroke-linejoin="round" transform="translate(3, 5) scale(0.9)"/>
  <path d="M15 21 L18 24 L25 16" fill="none" stroke="white" stroke-width="1.8" stroke-linecap="round" stroke-linejoin="round"/>
</svg>
