<svg xmlns="http://www.w3.org/2000/svg" viewBox="0 0 80 80">
  <defs>
    <linearGradient id="grad" x1="0%" y1="0%" x2="100%" y2="100%">
      <stop offset="0%" style="stop-color:#2563eb"/>
      <stop offset="100%" style="stop-color:#10b981"/>
    </linearGradient>
  </defs>
  <rect x="0" y="0" width="80" height="80" rx="16" fill="url(#grad)"/>
  <!-- Wrench -->
  <path d="M55 25c0-2.2-0.8-4.2-2.1-5.7l-7.2 7.2-5.7-1.4-1.4-5.7 7.2-7.2C44.2 10.8 42.2 10 40 10c-6.6 0-12 5.4-12 12 0 1.4 0.2 2.7 0.7 4L16 38.7c-1.6 1.6-1.6 4.1 0 5.7l1.6 1.6c1.6 1.6 4.1 1.6 5.7 0L36 33.3c1.3 0.4 2.6 0.7 4 0.7 6.6 0 12-5.4 12-12z" fill="none" stroke="white" stroke-width="2.5" stroke-linecap="round" stroke-linejoin="round" transform="translate(8, 14) scale(0.9)"/>
  <!-- Checkmark -->
  <path d="M38 52 L46 60 L62 40" fill="none" stroke="white" stroke-width="3.5" stroke-linecap="round" stroke-linejoin="round"/>
</svg>
